# xmcd CD database file
#
# Track frame offsets:
#	150
#	22108
#	40657
#	63684
#	76043
#	87653
#	99626
#	115490
#	131149
#	149266
#	172745
#	191911
#
# Disc length: 2770 seconds
#
# Revision: 0
# Processed by: cddbd v1.5.1PL2 Copyright (c) Steve Scherf et al.
# Submitted via: CDex 1.51
#
DISCID=a90ad00c
DTITLE=best of Buena Vista  - best of Buena Vista (Original Versions)
DYEAR=2006
DGENRE=Salsa
TTITLE0=Chicharrones Con Tostones - Compay Segundo
TTITLE1=La Ultima Noche - Omara Portuondo
TTITLE2=El Son De La Santiaguera - Ibrahim Ferrer
TTITLE3=Piensa En Mi - Omara Portuondo
TTITLE4=Monte Adentro - Ibrahim Ferrer
TTITLE5=Filiberto - Compay Segundo
TTITLE6=Tres Palabras - Omara Portuondo
TTITLE7=El Platanal de Bartola - Ibrahim Ferrer
TTITLE8=Se Secó el Arroyito - Compay Segundo
TTITLE9=En Que Parte de Cuba Nació El Sol - Ibrahim Ferrer
TTITLE10=Quién te Bautizó - Compay Segundo
TTITLE11=La Rosa Oriental - Omara Portuondo
EXTD=YEAR: 2006
EXTT0=
EXTT1=
EXTT2=
EXTT3=
EXTT4=
EXTT5=
EXTT6=
EXTT7=
EXTT8=
EXTT9=
EXTT10=
EXTT11=
PLAYORDER=
